<svg xmlns="http://www.w3.org/2000/svg" width="52" height="52" viewBox="0 0 52 52">
  <path id="comment" d="M26,1C12.268,1,0,10.989,0,24.653a22.015,22.015,0,0,0,4.435,13.3C4.554,42.274,2.219,48.481.117,53c5.638-1.111,13.652-3.564,17.286-5.994C37.414,52.317,52,38.958,52,24.653,52,10.915,39.648,1,26,1ZM15.167,28.182a3.406,3.406,0,0,1-3.25-3.545,3.406,3.406,0,0,1,3.25-3.545,3.406,3.406,0,0,1,3.25,3.545A3.406,3.406,0,0,1,15.167,28.182Zm10.833,0a3.406,3.406,0,0,1-3.25-3.545A3.406,3.406,0,0,1,26,21.091a3.406,3.406,0,0,1,3.25,3.545A3.406,3.406,0,0,1,26,28.182Zm10.833,0a3.407,3.407,0,0,1-3.25-3.545,3.262,3.262,0,1,1,6.5,0A3.406,3.406,0,0,1,36.833,28.182Z" transform="translate(0 -1)" fill="#05396b"/>
</svg>
