<svg xmlns="http://www.w3.org/2000/svg" width="52" height="52" viewBox="0 0 52 52">
  <path id="like" d="M10.833,47.667H0v-26H10.833ZM49,29.441c-1.857-.249-1.252-1.59.067-2C50.2,27.1,52,26.36,52,24.171c0-1.456-1.083-3.384-4.921-3.228-2.661.108-7.943-.429-10.788-1.917C38.255,11.1,37.782,0,32.634,0c-3.454,0-4.108,3.915-5.146,7.516-2.645,9.191-7.176,13.037-12.322,14.917V46c9.494,1.519,13.747,6,22.761,6,6.929,0,10.513-3.759,10.513-5.776,0-.726-.589-1.242-2.08-1.356-1.757-.134-1.59-1.759.067-2.065,2.747-.507,3.956-1.98,3.956-3.343A2.745,2.745,0,0,0,48,36.9c-1.814-.41-1.439-1.64.067-1.759,2.455-.195,3.657-1.655,3.657-3.055A2.793,2.793,0,0,0,49,29.441Z" fill="#05396b"/>
</svg>
