<svg xmlns="http://www.w3.org/2000/svg" width="178.385" height="237.847" viewBox="0 0 178.385 237.847">
  <path id="iconmonstr-code-fork-1" d="M181.385,29.731A29.731,29.731,0,1,0,142.24,57.8c1.665,42.565-20.029,47.213-49.532,53.426-16.937,3.568-36.093,7.68-50.067,20.663V57.638a29.731,29.731,0,1,0-19.821,0V180.2a29.721,29.721,0,1,0,20.088.089c2.676-38.868,25.469-43.685,53.882-49.67,30.107-6.343,67.132-14.291,65.2-73.108a29.649,29.649,0,0,0,19.394-27.779Zm-166.493,0A17.839,17.839,0,1,1,32.731,47.569,17.853,17.853,0,0,1,14.892,29.731ZM50.569,208.116a17.839,17.839,0,1,1-17.839-17.839A17.853,17.853,0,0,1,50.569,208.116ZM151.654,47.569a17.839,17.839,0,1,1,17.839-17.839A17.853,17.853,0,0,1,151.654,47.569Z" transform="translate(-3)" fill="#05396b"/>
</svg>
